<?xml version="1.0" standalone="yes"?>

<svg version="1.1" viewBox="0.0 0.0 543.0 406.0" fill="none" stroke="none" stroke-linecap="square" stroke-miterlimit="10" xmlns="http://www.w3.org/2000/svg" xmlns:xlink="http://www.w3.org/1999/xlink"><clipPath id="p.0"><path d="m0 0l543.0 0l0 406.0l-543.0 0l0 -406.0z" clip-rule="nonzero"></path></clipPath><g clip-path="url(#p.0)"><path fill="#000000" fill-opacity="0.0" d="m0 0l543.9344 0l0 406.7034l-543.9344 0z" fill-rule="nonzero"></path><path fill="#ffffff" d="m26.39895 13.745407l487.9055 0l0 367.90552l-487.9055 0z" fill-rule="nonzero"></path><path stroke="#000000" stroke-width="2.0" stroke-linejoin="round" stroke-linecap="butt" d="m26.39895 13.745407l487.9055 0l0 367.90552l-487.9055 0z" fill-rule="nonzero"></path><path fill="#ffffff" d="m213.2231 36.019882l225.6378 0l0 324.063l-225.6378 0z" fill-rule="nonzero"></path><path stroke="#000000" stroke-width="2.0" stroke-linejoin="round" stroke-linecap="butt" d="m213.2231 36.019882l225.6378 0l0 324.063l-225.6378 0z" fill-rule="nonzero"></path><path fill="#ffffff" d="m92.026245 89.784775l0 0c0 -23.422089 19.628967 -42.409447 43.842514 -42.409447l0 0c11.627762 0 22.779282 4.4681244 31.001343 12.42144c8.222076 7.9533157 12.841187 18.740326 12.841187 29.988007l0 0c0 23.422096 -19.628967 42.409454 -43.84253 42.409454l0 0c-24.213547 0 -43.842514 -18.987358 -43.842514 -42.409454z" fill-rule="nonzero"></path><path stroke="#000000" stroke-width="2.0" stroke-linejoin="round" stroke-linecap="butt" d="m92.026245 89.784775l0 0c0 -23.422089 19.628967 -42.409447 43.842514 -42.409447l0 0c11.627762 0 22.779282 4.4681244 31.001343 12.42144c8.222076 7.9533157 12.841187 18.740326 12.841187 29.988007l0 0c0 23.422096 -19.628967 42.409454 -43.84253 42.409454l0 0c-24.213547 0 -43.842514 -18.987358 -43.842514 -42.409454z" fill-rule="nonzero"></path><path fill="#000000" fill-opacity="0.0" d="m391.42783 319.85303l44.53543 0l0 38.80313l-44.53543 0z" fill-rule="nonzero"></path><path fill="#000000" d="m401.83408 345.74365l0 -13.59375l2.671875 0l5.578125 9.078125l0 -9.078125l2.546875 0l0 13.59375l-2.765625 0l-5.46875 -8.875l0 8.875l-2.5625 0z" fill-rule="nonzero"></path><path fill="#000000" fill-opacity="0.0" d="m470.46982 345.72177l34.48819 0l0 34.48819l-34.48819 0z" fill-rule="nonzero"></path><path fill="#000000" d="m480.81357 371.6124l0 -13.59375l4.109375 0l2.46875 9.265625l2.4375 -9.265625l4.125 0l0 13.59375l-2.546875 0l0 -10.703125l-2.703125 10.703125l-2.640625 0l-2.703125 -10.703125l0 10.703125l-2.546875 0z" fill-rule="nonzero"></path><path fill="#ffffff" d="m92.026245 258.31235l0 0c0 -23.422104 19.628967 -42.409454 43.842514 -42.409454l0 0c11.627762 0 22.779282 4.4681244 31.001343 12.4214325c8.222076 7.9533234 12.841187 18.740326 12.841187 29.988022l0 0c0 23.422089 -19.628967 42.409424 -43.84253 42.409424l0 0c-24.213547 0 -43.842514 -18.987335 -43.842514 -42.409424z" fill-rule="nonzero"></path><path stroke="#000000" stroke-width="2.0" stroke-linejoin="round" stroke-linecap="butt" d="m92.026245 258.31235l0 0c0 -23.422104 19.628967 -42.409454 43.842514 -42.409454l0 0c11.627762 0 22.779282 4.4681244 31.001343 12.4214325c8.222076 7.9533234 12.841187 18.740326 12.841187 29.988022l0 0c0 23.422089 -19.628967 42.409424 -43.84253 42.409424l0 0c-24.213547 0 -43.842514 -18.987335 -43.842514 -42.409424z" fill-rule="nonzero"></path><path fill="#ffffff" d="m297.91864 258.31235l0 0c0 -23.422104 19.628967 -42.409454 43.84253 -42.409454l0 0c11.627747 0 22.779266 4.4681244 31.001343 12.4214325c8.222046 7.9533234 12.841156 18.740326 12.841156 29.988022l0 0c0 23.422089 -19.628967 42.409424 -43.8425 42.409424l0 0c-24.213562 0 -43.84253 -18.987335 -43.84253 -42.409424z" fill-rule="nonzero"></path><path stroke="#000000" stroke-width="2.0" stroke-linejoin="round" stroke-linecap="butt" d="m297.91864 258.31235l0 0c0 -23.422104 19.628967 -42.409454 43.84253 -42.409454l0 0c11.627747 0 22.779266 4.4681244 31.001343 12.4214325c8.222046 7.9533234 12.841156 18.740326 12.841156 29.988022l0 0c0 23.422089 -19.628967 42.409424 -43.8425 42.409424l0 0c-24.213562 0 -43.84253 -18.987335 -43.84253 -42.409424z" fill-rule="nonzero"></path><path fill="#ffffff" d="m297.91864 89.784775l0 0c0 -23.422089 19.628967 -42.409447 43.84253 -42.409447l0 0c11.627747 0 22.779266 4.4681244 31.001343 12.42144c8.222046 7.9533157 12.841156 18.740326 12.841156 29.988007l0 0c0 23.422096 -19.628967 42.409454 -43.8425 42.409454l0 0c-24.213562 0 -43.84253 -18.987358 -43.84253 -42.409454z" fill-rule="nonzero"></path><path stroke="#000000" stroke-width="2.0" stroke-linejoin="round" stroke-linecap="butt" d="m297.91864 89.784775l0 0c0 -23.422089 19.628967 -42.409447 43.84253 -42.409447l0 0c11.627747 0 22.779266 4.4681244 31.001343 12.42144c8.222046 7.9533157 12.841156 18.740326 12.841156 29.988007l0 0c0 23.422096 -19.628967 42.409454 -43.8425 42.409454l0 0c-24.213562 0 -43.84253 -18.987358 -43.84253 -42.409454z" fill-rule="nonzero"></path><path fill="#000000" fill-opacity="0.0" d="m252.73753 65.45407l70.55119 0l0 72.97638l-70.55119 0z" fill-rule="nonzero"></path><path fill="#000000" d="m261.9719 81.48532l1.75 0l2.75 7.765625l2.828125 -7.765625l1.703125 0l-3.6875 9.859375l0 3.78125l-1.6875 0l0 -3.78125l-3.65625 -9.859375z" fill-rule="nonzero"></path><path fill="#000000" fill-opacity="0.0" d="m38.711285 65.45407l72.97638 0l0 48.661415l-72.97638 0z" fill-rule="nonzero"></path><path fill="#000000" d="m52.336285 81.29782l-0.3125 1.453125q-1.921875 0.640625 -1.921875 3.359375q0 1.4375 0.75 2.5625q0.75 1.125 2.265625 1.453125l0 -6.125q0 -0.984375 0.125 -1.515625q0.140625 -0.53125 0.640625 -0.875q0.5 -0.34375 1.359375 -0.34375q1.3125 0 2.140625 0.546875q0.84375 0.53125 1.40625 1.6875q0.578125 1.15625 0.578125 2.5q0 1.109375 -0.453125 2.234375q-0.453125 1.109375 -1.46875 2.046875q-1.015625 0.9375 -2.6875 1.296875l0 3.546875l-1.640625 0l0 -3.546875q-1.734375 0 -3.234375 -1.515625q-1.5 -1.515625 -1.5 -3.890625q0 -2.1875 1.203125 -3.546875q1.203125 -1.359375 2.75 -1.328125zm2.421875 8.75q1.1875 -0.21875 2.015625 -1.3125q0.84375 -1.109375 0.84375 -2.90625q0 -1.65625 -0.609375 -2.40625q-0.609375 -0.765625 -1.296875 -0.765625q-0.5 0 -0.734375 0.34375q-0.21875 0.328125 -0.21875 1.484375l0 5.5625z" fill-rule="nonzero"></path><path fill="#000000" fill-opacity="0.0" d="m48.29134 234.69029l77.82677 0l0 59.59056l-77.82677 0z" fill-rule="nonzero"></path><path fill="#000000" d="m58.150715 253.78404q0 -7.03125 4.421875 -7.03125q4.437496 0 4.437496 7.03125q0 7.0156097 -4.437496 7.0156097q-4.421875 0 -4.421875 -7.0156097zm1.71875 -0.6875l5.421871 0q-0.09375 -2.890625 -0.84375 -3.921875q-0.7343712 -1.046875 -1.8906212 -1.046875q-2.578125 0 -2.6875 4.96875zm5.421871 1.359375l-5.421871 0q0.109375 4.9687347 2.703125 4.9687347q2.6249962 0 2.7187462 -4.9687347z" fill-rule="nonzero"></path><path fill="#000000" fill-opacity="0.0" d="m252.13911 244.42258l71.74803 0l0 65.66928l-71.74803 0z" fill-rule="nonzero"></path><path fill="#000000" d="m261.5141 270.3132l0 -1.359375l6.265625 -7.1875q-1.0625 0.046875 -1.875 0.046875l-4.015625 0l0 -1.359375l8.046875 0l0 1.109375l-5.34375 6.25l-1.015625 1.140625q1.109375 -0.078125 2.09375 -0.078125l4.5625 0l0 1.4375l-8.71875 0z" fill-rule="nonzero"></path><path fill="#000000" fill-opacity="0.0" d="m135.86876 132.19423l0 83.708664" fill-rule="nonzero"></path><path stroke="#000000" stroke-width="2.0" stroke-linejoin="round" stroke-linecap="butt" d="m135.86876 132.19423l0 71.708664" fill-rule="evenodd"></path><path fill="#000000" stroke="#000000" stroke-width="2.0" stroke-linecap="butt" d="m132.5653 203.9029l3.3034515 9.076187l3.3034668 -9.076187z" fill-rule="evenodd"></path><path fill="#000000" fill-opacity="0.0" d="m340.12335 134.64305l1.6378174 81.25984" fill-rule="nonzero"></path><path stroke="#000000" stroke-width="2.0" stroke-linejoin="round" stroke-linecap="butt" d="m340.12335 134.64305l1.3959961 69.26228" fill-rule="evenodd"></path><path fill="#000000" stroke="#000000" stroke-width="2.0" stroke-linecap="butt" d="m338.21655 203.9719l3.4856873 9.007782l3.1199036 -9.140915z" fill-rule="evenodd"></path></g></svg>

