<?xml version="1.0" encoding="UTF-8" standalone="no"?>
<!-- Created with Inkscape (http://www.inkscape.org/) -->

<svg
   xmlns:dc="http://purl.org/dc/elements/1.1/"
   xmlns:cc="http://creativecommons.org/ns#"
   xmlns:rdf="http://www.w3.org/1999/02/22-rdf-syntax-ns#"
   xmlns:svg="http://www.w3.org/2000/svg"
   xmlns="http://www.w3.org/2000/svg"
   version="1.2"
   width="100%"
   height="100%"
   viewBox="0 0 543 406"
   id="svg3095"
   style="fill:none;stroke:none">
  <metadata
     id="metadata3168">
    <rdf:RDF>
      <cc:Work
         rdf:about="">
        <dc:format>image/svg+xml</dc:format>
        <dc:type
           rdf:resource="http://purl.org/dc/dcmitype/StillImage" />
        <dc:title></dc:title>
      </cc:Work>
    </rdf:RDF>
  </metadata>
  <defs
     id="defs3166" />
  <clipPath
     id="p.0">
    <path
       d="M 0,0 543,0 543,406 0,406 0,0 z"
       id="path3098" />
  </clipPath>
  <g
     clip-path="url(#p.0)"
     id="g3100">
    <path
       d="m 0,0 543.9344,0 0,406.7034 -543.9344,0 z"
       id="path3102"
       style="fill:#000000;fill-opacity:0;fill-rule:nonzero" />
    <path
       d="m 26.39895,13.745407 487.9055,0 0,367.905523 -487.9055,0 z"
       id="path3104"
       style="fill:#ffffff;fill-rule:nonzero" />
    <path
       d="m 26.39895,13.745407 487.9055,0 0,367.905523 -487.9055,0 z"
       id="path3106"
       style="stroke:#000000;stroke-width:2;stroke-linecap:butt;stroke-linejoin:round" />
    <path
       d="m 213.2231,36.019882 225.6378,0 0,324.062998 -225.6378,0 z"
       id="path3108"
       style="fill:#ffffff;fill-rule:nonzero" />
    <path
       d="m 213.2231,36.019882 225.6378,0 0,324.062998 -225.6378,0 z"
       id="path3110"
       style="stroke:#000000;stroke-width:2;stroke-linecap:butt;stroke-linejoin:round" />
    <path
       d="m 92.026245,89.784775 0,0 c 0,-23.422089 19.628965,-42.409447 43.842515,-42.409447 l 0,0 c 11.62776,0 22.77928,4.468124 31.00134,12.42144 8.22208,7.953316 12.84119,18.740326 12.84119,29.988007 l 0,0 c 0,23.422095 -19.62897,42.409455 -43.84253,42.409455 l 0,0 c -24.21355,0 -43.842515,-18.98736 -43.842515,-42.409455 z"
       id="path3112"
       style="fill:#ffffff;fill-rule:nonzero" />
    <path
       d="m 92.026245,89.784775 0,0 c 0,-23.422089 19.628965,-42.409447 43.842515,-42.409447 l 0,0 c 11.62776,0 22.77928,4.468124 31.00134,12.42144 8.22208,7.953316 12.84119,18.740326 12.84119,29.988007 l 0,0 c 0,23.422095 -19.62897,42.409455 -43.84253,42.409455 l 0,0 c -24.21355,0 -43.842515,-18.98736 -43.842515,-42.409455 z"
       id="path3114"
       style="stroke:#000000;stroke-width:2;stroke-linecap:butt;stroke-linejoin:round" />
    <path
       d="m 391.42783,319.85303 44.53543,0 0,38.80313 -44.53543,0 z"
       id="path3116"
       style="fill:#000000;fill-opacity:0;fill-rule:nonzero" />
    <path
       d="m 401.83408,345.74365 0,-13.59375 2.67187,0 5.57813,9.07812 0,-9.07812 2.54687,0 0,13.59375 -2.76562,0 -5.46875,-8.875 0,8.875 -2.5625,0 z"
       id="path3118"
       style="fill:#000000;fill-rule:nonzero" />
    <path
       d="m 470.46982,345.72177 34.48819,0 0,34.48819 -34.48819,0 z"
       id="path3120"
       style="fill:#000000;fill-opacity:0;fill-rule:nonzero" />
    <path
       d="m 480.81357,371.6124 0,-13.59375 4.10938,0 2.46875,9.26562 2.4375,-9.26562 4.125,0 0,13.59375 -2.54688,0 0,-10.70313 -2.70312,10.70313 -2.64063,0 -2.70312,-10.70313 0,10.70313 -2.54688,0 z"
       id="path3122"
       style="fill:#000000;fill-rule:nonzero" />
    <path
       d="m 92.026245,258.31235 0,0 c 0,-23.4221 19.628965,-42.40945 43.842515,-42.40945 l 0,0 c 11.62776,0 22.77928,4.46812 31.00134,12.42143 8.22208,7.95332 12.84119,18.74032 12.84119,29.98802 l 0,0 c 0,23.42209 -19.62897,42.40942 -43.84253,42.40942 l 0,0 c -24.21355,0 -43.842515,-18.98733 -43.842515,-42.40942 z"
       id="path3124"
       style="fill:#ffffff;fill-rule:nonzero" />
    <path
       d="m 92.026245,258.31235 0,0 c 0,-23.4221 19.628965,-42.40945 43.842515,-42.40945 l 0,0 c 11.62776,0 22.77928,4.46812 31.00134,12.42143 8.22208,7.95332 12.84119,18.74032 12.84119,29.98802 l 0,0 c 0,23.42209 -19.62897,42.40942 -43.84253,42.40942 l 0,0 c -24.21355,0 -43.842515,-18.98733 -43.842515,-42.40942 z"
       id="path3126"
       style="stroke:#000000;stroke-width:2;stroke-linecap:butt;stroke-linejoin:round" />
    <path
       d="m 297.91864,258.31235 0,0 c 0,-23.4221 19.62897,-42.40945 43.84253,-42.40945 l 0,0 c 11.62775,0 22.77927,4.46812 31.00134,12.42143 8.22205,7.95332 12.84116,18.74032 12.84116,29.98802 l 0,0 c 0,23.42209 -19.62897,42.40942 -43.8425,42.40942 l 0,0 c -24.21356,0 -43.84253,-18.98733 -43.84253,-42.40942 z"
       id="path3128"
       style="fill:#ffffff;fill-rule:nonzero" />
    <path
       d="m 297.91864,258.31235 0,0 c 0,-23.4221 19.62897,-42.40945 43.84253,-42.40945 l 0,0 c 11.62775,0 22.77927,4.46812 31.00134,12.42143 8.22205,7.95332 12.84116,18.74032 12.84116,29.98802 l 0,0 c 0,23.42209 -19.62897,42.40942 -43.8425,42.40942 l 0,0 c -24.21356,0 -43.84253,-18.98733 -43.84253,-42.40942 z"
       id="path3130"
       style="stroke:#000000;stroke-width:2;stroke-linecap:butt;stroke-linejoin:round" />
    <path
       d="m 297.91864,89.784775 0,0 c 0,-23.422089 19.62897,-42.409447 43.84253,-42.409447 l 0,0 c 11.62775,0 22.77927,4.468124 31.00134,12.42144 8.22205,7.953316 12.84116,18.740326 12.84116,29.988007 l 0,0 c 0,23.422095 -19.62897,42.409455 -43.8425,42.409455 l 0,0 c -24.21356,0 -43.84253,-18.98736 -43.84253,-42.409455 z"
       id="path3132"
       style="fill:#ffffff;fill-rule:nonzero" />
    <path
       d="m 297.91864,89.784775 0,0 c 0,-23.422089 19.62897,-42.409447 43.84253,-42.409447 l 0,0 c 11.62775,0 22.77927,4.468124 31.00134,12.42144 8.22205,7.953316 12.84116,18.740326 12.84116,29.988007 l 0,0 c 0,23.422095 -19.62897,42.409455 -43.8425,42.409455 l 0,0 c -24.21356,0 -43.84253,-18.98736 -43.84253,-42.409455 z"
       id="path3134"
       style="stroke:#000000;stroke-width:2;stroke-linecap:butt;stroke-linejoin:round" />
    <path
       d="m 252.73753,65.45407 70.55119,0 0,72.97638 -70.55119,0 z"
       id="path3136"
       style="fill:#000000;fill-opacity:0;fill-rule:nonzero" />
    <path
       d="m 38.711285,65.45407 72.976385,0 0,48.66142 -72.976385,0 z"
       id="path3140"
       style="fill:#000000;fill-opacity:0;fill-rule:nonzero" />
    <path
       d="m 48.29134,234.69029 77.82677,0 0,59.59056 -77.82677,0 z"
       id="path3144"
       style="fill:#000000;fill-opacity:0;fill-rule:nonzero" />
    <path
       d="m 252.13911,244.42258 71.74803,0 0,65.66928 -71.74803,0 z"
       id="path3148"
       style="fill:#000000;fill-opacity:0;fill-rule:nonzero" />
    <path
       d="m 135.86876,132.19423 0,83.70866"
       id="path3152"
       style="fill:#000000;fill-opacity:0;fill-rule:nonzero" />
    <path
       d="m 135.86876,132.19423 0,71.70866"
       id="path3154"
       style="stroke:#000000;stroke-width:2;stroke-linecap:butt;stroke-linejoin:round" />
    <path
       d="m 132.5653,203.9029 3.30345,9.07619 3.30347,-9.07619 z"
       id="path3156"
       style="fill:#000000;fill-rule:evenodd;stroke:#000000;stroke-width:2;stroke-linecap:butt" />
    <path
       d="m 340.12335,134.64305 1.63782,81.25984"
       id="path3158"
       style="fill:#000000;fill-opacity:0;fill-rule:nonzero" />
    <path
       d="m 340.12335,134.64305 1.396,69.26228"
       id="path3160"
       style="stroke:#000000;stroke-width:2;stroke-linecap:butt;stroke-linejoin:round" />
    <path
       d="m 338.21655,203.9719 3.48569,9.00778 3.1199,-9.14091 z"
       id="path3162"
       style="fill:#000000;fill-rule:evenodd;stroke:#000000;stroke-width:2;stroke-linecap:butt" />
    <flowRoot
       id="flowRoot3170"
       xml:space="preserve"
       style="font-size:24px;font-style:normal;font-variant:normal;font-weight:normal;font-stretch:normal;text-align:center;line-height:125%;letter-spacing:0px;word-spacing:0px;writing-mode:lr-tb;text-anchor:middle;fill:#000000;fill-opacity:1;stroke:none;font-family:Sans;-inkscape-font-specification:Sans"><flowRegion
         id="flowRegion3172"><rect
           width="50.471153"
           height="57.432693"
           x="43.509617"
           y="68.365387"
           id="rect3174"
           style="font-size:24px" /></flowRegion><flowPara
         id="flowPara3176"></flowPara></flowRoot>    <flowRoot
       id="flowRoot3178"
       xml:space="preserve"
       style="font-size:24px;font-style:normal;font-variant:normal;font-weight:normal;font-stretch:normal;text-align:center;line-height:125%;letter-spacing:0px;word-spacing:0px;writing-mode:lr-tb;text-anchor:middle;fill:#000000;fill-opacity:1;stroke:none;font-family:Sans;-inkscape-font-specification:Sans"><flowRegion
         id="flowRegion3180"><rect
           width="46.990383"
           height="62.653847"
           x="52.21154"
           y="45.740383"
           id="rect3182"
           style="font-size:24px" /></flowRegion><flowPara
         id="flowPara3184"></flowPara></flowRoot>    <flowRoot
       transform="translate(-39.604008,37.363431)"
       id="flowRoot3186"
       xml:space="preserve"
       style="font-size:24px;font-style:normal;font-variant:normal;font-weight:normal;font-stretch:normal;text-align:center;line-height:125%;letter-spacing:0px;word-spacing:0px;writing-mode:lr-tb;text-anchor:middle;fill:#000000;fill-opacity:1;stroke:none;font-family:Sans;-inkscape-font-specification:Sans"><flowRegion
         id="flowRegion3188"><rect
           width="137.49039"
           height="59.173077"
           x="43.509617"
           y="33.557693"
           id="rect3190"
           style="font-size:24px" /></flowRegion><flowPara
         id="flowPara3192">$\gamma$</flowPara></flowRoot>    <flowRoot
       transform="translate(-22.783935,20.856519)"
       id="flowRoot3194"
       xml:space="preserve"
       style="font-size:12px;font-style:normal;font-variant:normal;font-weight:normal;font-stretch:normal;text-align:center;line-height:125%;letter-spacing:0px;word-spacing:0px;writing-mode:lr-tb;text-anchor:middle;fill:#000000;fill-opacity:1;stroke:none;font-family:Sans;-inkscape-font-specification:Sans"><flowRegion
         id="flowRegion3196"><rect
           width="120.79243"
           height="52.666946"
           x="233.21153"
           y="49.221153"
           id="rect3198" /></flowRegion><flowPara
         id="flowPara3202"
         style="font-size:24px">$\phi$</flowPara></flowRoot>    <flowRoot
       id="flowRoot3206"
       xml:space="preserve"
       style="font-size:12px;font-style:normal;font-variant:normal;font-weight:normal;font-stretch:normal;text-align:center;line-height:125%;letter-spacing:0px;word-spacing:0px;writing-mode:lr-tb;text-anchor:middle;fill:#000000;fill-opacity:1;stroke:none;font-family:Sans;-inkscape-font-specification:Sans"><flowRegion
         id="flowRegion3208"><rect
           width="9.8451023"
           height="27.07403"
           x="278.73944"
           y="108.18566"
           id="rect3210" /></flowRegion><flowPara
         id="flowPara3212"></flowPara></flowRoot>    <flowRoot
       id="flowRoot3214"
       xml:space="preserve"
       style="font-size:24px;font-style:normal;font-variant:normal;font-weight:normal;font-stretch:normal;text-align:center;line-height:125%;letter-spacing:0px;word-spacing:0px;writing-mode:lr-tb;text-anchor:middle;fill:#000000;fill-opacity:1;stroke:none;font-family:Sans;-inkscape-font-specification:Sans"><flowRegion
         id="flowRegion3216"><rect
           width="43.072323"
           height="61.531887"
           x="228.89862"
           y="228.78816"
           id="rect3218"
           style="font-size:24px" /></flowRegion><flowPara
         id="flowPara3220"></flowPara></flowRoot>    <flowRoot
       transform="translate(13.622315,24.764572)"
       id="flowRoot3222"
       xml:space="preserve"
       style="font-size:24px;font-style:normal;font-variant:normal;font-weight:normal;font-stretch:normal;text-align:center;line-height:125%;letter-spacing:0px;word-spacing:0px;writing-mode:lr-tb;text-anchor:middle;fill:#000000;fill-opacity:1;stroke:none;font-family:Sans;-inkscape-font-specification:Sans"><flowRegion
         id="flowRegion3224"><rect
           width="44.302959"
           height="61.531887"
           x="235.05182"
           y="220.17369"
           id="rect3226"
           style="font-size:24px" /></flowRegion><flowPara
         id="flowPara3228">z</flowPara></flowRoot>    <flowRoot
       transform="translate(-31.916508,0)"
       id="flowRoot3230"
       xml:space="preserve"
       style="font-size:24px;font-style:normal;font-variant:normal;font-weight:normal;font-stretch:normal;text-align:center;line-height:125%;letter-spacing:0px;word-spacing:0px;writing-mode:lr-tb;text-anchor:middle;fill:#000000;fill-opacity:1;stroke:none;font-family:Sans;-inkscape-font-specification:Sans"><flowRegion
         id="flowRegion3232"><rect
           width="105.86554"
           height="31.278454"
           x="51.729752"
           y="246.60019"
           id="rect3234" /></flowRegion><flowPara
         id="flowPara3236">$\theta</flowPara></flowRoot>  </g>
</svg>
